<svg xmlns="http://www.w3.org/2000/svg" version="1.0" width="1024" height="1024" viewBox="0 0 1024.000000 1024.000000" preserveAspectRatio="xMidYMid meet">
   <g transform="translate(0.000000,1024) scale(0.100000,-0.100000)" fill="#33f" stroke="none">
      <path d="M1806 9484 c-174 -42 -327 -192 -380 -373 -14 -49 -16 -301 -16 -2616 0 -2824 -5 -2610 62 -2739 41 -79 164 -202 239 -239 118 -59 75 -57 1177 -57 732 0 1012 -3 1012 -11 0 -30 -35 -139 -62 -195 -59 -120 -155 -207 -298 -268 -74 -32 -144 -85 -165 -126 -24 -46 -19 -87 12 -107 26 -17 116 -18 1719 -18 l1692 0 26 24 c49 46 54 131 9 175 -26 26 -42 31 -135 41 -168 19 -294 156 -362 395 l-24 85 1012 5 c917 5 1017 7 1075 23 101 27 186 73 255 137 68 64 110 134 148 245 l23 70 3 2559 c2 2251 0 2567 -13 2618 -49 194 -203 343 -389 377 -42 8 -1015 11 -3310 10 -2772 -1 -3260 -3 -3310 -15z m6124 -2599 l0 -1755 -2835 0 -2835 0 0 1755 0 1755 2835 0 2835 0 0 -1755z m-2722 -2354 c152 -78 163 -274 21 -368 -122 -81 -302 8 -317 156 -8 88 40 172 123 215 42 22 127 20 173 -3z" />
      <path d="M692 1677 l-622 -622 0 -158 0 -157 5045 0 5045 0 -2 165 -3 164 -585 615 -585 616 -3835 0 -3835 0 -623 -623z m968 342 c92 -31 132 -94 94 -147 -16 -24 -90 -65 -138 -76 -50 -12 -189 -7 -243 9 -56 17 -110 56 -123 89 -41 110 219 190 410 125z m706 5 c65 -18 116 -52 129 -87 14 -43 -10 -77 -78 -111 -163 -82 -447 -23 -447 92 0 40 58 87 132 106 106 27 166 27 264 0z m1473 -5 c112 -39 144 -110 75 -167 -104 -86 -351 -86 -449 -1 -137 120 146 247 374 168z m749 -9 c129 -56 120 -146 -21 -199 -62 -23 -162 -29 -250 -16 -62 9 -148 62 -160 97 -38 118 248 197 431 118z m642 25 c25 -3 69 -17 98 -31 167 -81 49 -216 -189 -216 -101 0 -178 23 -223 66 -59 55 -41 113 48 155 46 21 151 40 196 35 14 -2 45 -6 70 -9z m777 -11 c29 -8 69 -28 88 -45 99 -87 -24 -192 -225 -192 -194 0 -320 101 -232 186 72 69 226 90 369 51z m767 -14 c123 -59 111 -147 -29 -199 -51 -20 -75 -22 -165 -19 -91 3 -113 7 -163 32 -110 53 -111 128 -4 181 97 47 266 49 361 5z m1444 -4 c109 -55 108 -133 -2 -184 -141 -67 -388 -32 -432 61 -15 31 -15 36 0 65 47 91 301 126 434 58z m692 3 c127 -55 116 -145 -24 -198 -61 -23 -174 -30 -252 -15 -53 9 -129 49 -148 76 -87 124 222 224 424 137z m-5767 -2 c73 -36 94 -71 73 -121 -28 -68 -179 -112 -320 -95 -168 21 -247 115 -158 189 57 47 110 60 237 57 98 -2 116 -5 168 -30z m4355 4 c91 -41 116 -98 64 -150 -95 -95 -370 -99 -468 -6 -55 52 -38 112 43 150 61 29 92 34 203 31 84 -2 115 -7 158 -25z m-6195 -391 c73 -23 127 -67 127 -105 0 -60 -96 -119 -212 -131 -152 -15 -318 50 -318 126 0 43 75 100 157 119 69 16 177 12 246 -9z m755 -10 c132 -58 129 -150 -6 -200 -138 -52 -311 -31 -394 48 -69 64 -9 137 147 176 11 3 61 4 110 2 68 -2 103 -8 143 -26z m730 0 c94 -41 120 -106 62 -160 -48 -45 -120 -65 -230 -65 -190 0 -307 83 -244 173 54 78 285 107 412 52z m695 10 c109 -34 152 -93 112 -154 -9 -13 -44 -36 -78 -52 -55 -25 -74 -29 -162 -29 -111 0 -185 19 -234 61 -136 114 134 244 362 174z m755 -10 c55 -24 102 -69 102 -99 0 -27 -37 -69 -78 -90 -114 -57 -299 -51 -393 12 -18 12 -40 35 -49 49 -13 25 -13 31 3 61 35 65 132 99 272 94 67 -3 103 -9 143 -27z m727 1 c70 -31 95 -57 95 -99 0 -75 -104 -127 -255 -127 -183 0 -302 77 -255 165 13 25 72 60 128 76 72 21 225 13 287 -15z m727 1 c62 -27 98 -64 98 -99 0 -43 -22 -67 -89 -97 -206 -92 -523 21 -412 148 20 23 79 53 128 66 65 16 222 6 275 -18z m699 8 c106 -32 152 -94 112 -148 -87 -117 -402 -121 -492 -6 -28 36 -26 57 9 98 28 31 74 53 145 69 54 12 167 6 226 -13z m756 -9 c132 -58 130 -151 -5 -201 -202 -76 -477 18 -412 140 43 81 289 117 417 61z m686 9 c193 -60 157 -194 -62 -232 -170 -29 -366 52 -335 138 33 95 238 143 397 94z m692 6 c99 -26 145 -62 145 -114 0 -76 -104 -127 -260 -127 -110 0 -183 21 -230 65 -70 65 -16 148 117 179 58 14 172 12 228 -3z m688 -6 c161 -50 170 -154 19 -210 -146 -55 -341 -25 -405 62 -17 22 -19 33 -11 54 33 95 238 143 397 94z" />
   </g>
</svg>